<svg width="1em" height="1em" viewBox="0 0 623 231" role="img" fill="currentColor" stroke="currentColor"
    xmlns="http://www.w3.org/2000/svg">
    <path
        d="M181.426 107.888C181.426 107.888 181.426 107.951 181.426 107.989L173.234 143.914C172.792 145.946 170.785 147.436 168.463 147.436H158.579C157.847 147.436 157.19 147.928 156.988 148.635C147.862 179.927 135.504 201.437 119.183 214.35C105.297 225.345 88.1806 230.47 65.3205 230.47C44.7703 230.47 30.9229 223.792 19.171 210.614C3.64473 193.194 -2.78035 164.679 1.10752 130.319C8.12588 65.8159 41.2233 0.732005 104.982 0.732005C124.371 0.555284 139.594 6.60168 150.185 18.6692C161.381 31.431 167.074 50.6558 167.099 75.8133C167.061 78.0981 165.181 79.941 162.921 79.941H116.216C114.563 79.941 113.086 78.4389 113.111 76.7853C112.732 59.3909 107.62 50.9082 97.4711 50.9082C79.5718 50.9082 69.0064 75.4725 63.4018 89.0927C55.5756 108.115 51.5993 128.767 52.3819 149.342C52.748 158.923 54.2754 172.392 63.2756 177.971C71.2533 182.919 82.6392 179.637 89.5313 174.159C96.4234 168.68 101.965 159.201 104.3 150.554C104.628 149.355 104.654 148.421 104.338 148.004C104.01 147.575 103.101 147.474 102.407 147.474H90.4149C89.1273 147.474 87.8524 146.881 87.0824 145.921C86.4387 145.113 86.1862 144.116 86.4134 143.132L94.6183 107.143C95.0223 105.301 96.6759 103.912 98.7082 103.66V103.571H177.412C177.602 103.571 177.791 103.571 177.968 103.609C180.013 103.874 181.452 105.793 181.414 107.888H181.426Z" />
    <path
        d="M316.946 66.5987C316.908 68.8456 315.027 70.6885 312.768 70.6885H269.749C266.934 70.6885 264.573 68.3785 264.573 65.5636C264.573 52.8775 260.231 46.7049 251.345 46.7049C242.458 46.7049 236.727 52.2211 236.563 61.8525C236.374 72.5946 242.382 82.3521 259.499 99.128C282.031 120.486 291.056 139.408 290.627 164.414C289.92 204.858 262.705 231 221.302 231C200.158 231 184.001 225.282 173.259 214.01C162.353 202.56 157.354 185.759 158.402 164.073C158.452 161.826 160.32 159.996 162.58 159.996H207.076C208.288 159.996 209.487 160.589 210.295 161.599C210.989 162.47 211.279 163.543 211.103 164.553C210.61 172.379 211.961 178.223 215.003 181.455C216.96 183.55 219.674 184.611 223.069 184.611C231.287 184.611 236.109 178.741 236.285 168.516C236.437 159.68 233.672 151.93 218.601 136.265C199.136 117.04 181.678 97.1841 182.221 65.9549C182.537 47.8536 189.656 31.2923 202.267 19.3257C215.596 6.67754 233.837 0 255.005 0C276.212 0.151475 292.281 6.26098 302.77 18.1644C312.705 29.4493 317.489 45.7456 316.959 66.5987H316.946Z" />
    <path
        d="M450.295 223.388L450.572 8.30601C450.61 6.0465 448.805 4.20355 446.546 4.20355H379.96C377.725 4.20355 376.741 6.14749 376.097 7.43503L279.696 222.076V222.114C279.696 222.114 279.67 222.151 279.658 222.164C278.585 224.802 280.617 227.63 283.445 227.63H329.985C332.497 227.63 334.164 226.86 334.984 225.257L344.224 202.813C345.36 199.821 345.575 199.544 348.806 199.544H393.277C396.369 199.544 396.433 199.607 396.382 202.662L395.385 223.527C395.347 225.787 397.152 227.63 399.412 227.63H446.432C447.631 227.63 448.755 227.125 449.499 226.229C450.168 225.433 450.446 224.424 450.295 223.388ZM367.917 151.577C367.488 151.577 367.147 151.564 366.87 151.539C366.175 151.476 365.708 150.807 365.885 150.125C365.973 149.809 366.1 149.393 366.289 148.875L399.639 65.5006C399.929 64.6801 400.295 63.8722 400.674 63.0896C401.217 61.9662 401.873 61.8904 402.075 62.7236C402.252 63.4178 398.25 148.332 398.25 148.332C397.935 151.513 397.796 151.64 394.691 151.905L367.955 151.589H367.892L367.917 151.577Z" />
    <path
        d="M545.143 4.2035H509.799C507.931 4.2035 505.835 5.20071 505.343 7.4476C505.343 7.4476 456.151 223.25 456.151 223.275C455.937 224.272 456.164 225.257 456.82 226.077C457.59 227.036 458.865 227.63 460.153 227.63H504.333C506.706 227.63 508.335 226.456 508.776 224.411C508.776 224.411 514.128 200.023 514.141 199.948C514.52 198.042 513.863 196.565 512.172 195.668C511.377 195.252 510.581 194.835 509.799 194.419L502.137 190.392L494.512 186.378C493.528 185.86 492.543 185.343 491.571 184.825C491.079 184.573 490.776 184.068 490.789 183.513C490.801 182.692 491.483 182.023 492.303 182.023L516.514 182.137C523.76 182.174 531.005 181.657 538.125 180.332C588.263 170.978 621.562 130.395 622.522 75.1824C623.342 28.0609 597.314 4.17825 545.181 4.17825L545.143 4.2035ZM533.113 132.642H532.167C530.046 132.642 529.667 132.402 529.604 132.326C529.566 132.276 543.565 70.171 543.578 70.0827C543.931 68.2902 543.919 67.2551 542.82 66.6492C541.419 65.8666 520.983 54.973 520.983 54.973C520.49 54.7079 520.2 54.203 520.213 53.6476C520.225 52.8397 520.894 52.1707 521.715 52.1707H554.03C564.09 52.4863 569.695 61.5748 569.43 77.101C568.963 103.988 556.314 131.695 533.113 132.642Z" />
    <path
        d="M581.095 227.63C588.366 227.63 594.058 222.038 594.058 214.502C594.058 206.966 588.366 201.374 581.095 201.374C573.824 201.374 568.068 206.966 568.068 214.502C568.068 222.038 573.811 227.63 581.095 227.63ZM571.16 214.451C571.16 208.052 574.96 203.861 581.095 203.861C587.229 203.861 590.966 208.039 590.966 214.451C590.966 220.864 587.229 225.08 581.095 225.08C574.96 225.08 571.16 220.902 571.16 214.451ZM575.402 221.495H579.529V216.446H580.729C583.821 216.446 582.471 220.902 583.228 221.495H587.507V221.28C586.699 221.066 587.999 215.474 584.415 214.881V214.817C586.157 214.451 587.28 213.189 587.28 211.296C587.28 208.582 585.323 207.117 582.168 207.117H575.377V221.495H575.402ZM579.529 213.404V210.033H580.943C582.357 210.033 583.165 210.475 583.165 211.712C583.165 212.848 582.357 213.391 580.943 213.391H579.529V213.404Z" />
</svg>